# xmcd CD database file
#
# Track frame offsets:
#	150
#	11570
#	22476
#	35803
#	51334
#	64747
#	77013
#	86201
#	97836
#	107647
#	119596
#	131486
#	140770
#	150220
#	163195
#	174210
#	185725
#	200322
#	213371
#	225544
#	237453
#	253331
#	266445
#
# Disc length: 3739 seconds
#
# Revision: 0
# Processed by: cddbd v1.5.2PL0 Copyright (c) Steve Scherf et al.
# Submitted via: ACXtractor (MTCDDB.DLL V2003.12.21)
#
DISCID=490e9917
DTITLE=Dale Hooper - Dale Hooper Jim Reeves Etc
DYEAR=2001
DGENRE=Country
TTITLE0=Ravishing Ruby/ Dale Hooper
TTITLE1=Pure Love /Dale Hooper
TTITLE2=Liberty Valance/ Dale Hooper
TTITLE3=If I Said You Had a Beautiful Body/ Dale Hooper
TTITLE4=I Over Looked an Orchid - Dale Hooper
TTITLE5=Lucky Lips - Dale Hooper
TTITLE6=Don't You Want to Be My Girl /Jim Reeves
TTITLE7=Don't Tell Me/ Jim Reeves
TTITLE8=You'll Never be Mine Again - Jim Reeves
TTITLE9=I've Lived a Lot in My Time - Jim Reeves
TTITLE10=Don't Ask Me Why/ Jim Reeves
TTITLE11=What Would You Do/ Jim Reeves
TTITLE12=I Can't Fly/ Jim Reeves
TTITLE13=Take to the Mountains Johnny Chester
TTITLE14=A Lonely Man Like Me Johnny Chester
TTITLE15=Anytime At All/ Johnny Chester
TTITLE16=I Just Don't Know How to Say Goodbye /Johnny Chester
TTITLE17=If Only I Could Leave You - Johnny Chester
TTITLE18=Let's Build a Love Together
TTITLE19=Midnight Bus
TTITLE20=Only when Your Lonely
TTITLE21=Send Your Sweet Loving to Me
TTITLE22=She's My Kind of Woman
EXTD=ID3G:   2 YEAR: 2001
EXTT0=
EXTT1=
EXTT2=
EXTT3=
EXTT4=
EXTT5=
EXTT6=
EXTT7=
EXTT8=
EXTT9=
EXTT10=
EXTT11=
EXTT12=
EXTT13=
EXTT14=
EXTT15=
EXTT16=
EXTT17=
EXTT18=
EXTT19=
EXTT20=
EXTT21=
EXTT22=
PLAYORDER=
